<?xml version="1.0" encoding="utf-8"?>
<svg viewBox="126.823 211.508 209.887 58.751" xmlns="http://www.w3.org/2000/svg">
  <g id="Layer_2" data-name="Layer 2" transform="matrix(1, 0, 0, 1, 127.693901, 212.895218)">
    <g id="Layer_1-2" data-name="Layer 1">
      <path d="M140.23,15.21c-6.32,0-11.3,2.24-14.11,5.22A18.41,18.41,0,0,0,121.33,33v24h8.78V33.86c0-6.68,4.73-10.43,10.12-10.43s10.12,3.75,10.12,10.43V56.93h8.79V33a18.41,18.41,0,0,0-4.79-12.54c-2.82-3-7.8-5.22-14.12-5.22" style="fill: rgb(255, 196, 55);"/>
      <path d="M47.93,15.2c-6.32,0-11.3,2.25-14.12,5.23a5.34,5.34,0,0,0-.39.44l-.4-.44c-2.82-3-7.8-5.22-14.12-5.23S7.6,17.45,4.78,20.43A18.43,18.43,0,0,0,0,33v24H8.78V33.86c0-6.68,4.73-10.43,10.12-10.43S29,27.18,29,33.86V56.93H37.8V33.86c0-6.68,4.73-10.43,10.13-10.43s10.12,3.75,10.12,10.43v8.5a4.39,4.39,0,0,0,8.78,0V33A18.44,18.44,0,0,0,62,20.43c-2.82-3-7.8-5.22-14.11-5.23" style="fill: rgb(255, 196, 55);"/>
      <path d="M82.25,33.18a12.08,12.08,0,0,1,4.15-7.32,12.33,12.33,0,0,1,8.13-2.68,11.47,11.47,0,0,1,7.6,2.6,12.11,12.11,0,0,1,4,7.4Zm12.36-18q-9.51,0-15.45,6.18a21,21,0,0,0-6,15.2A20.81,20.81,0,0,0,79.24,52q6.18,6,16,6,11.88,0,17.81-8.86l-7.24-4.23q-3.57,5-10.49,5a14.2,14.2,0,0,1-8.58-2.52,11.36,11.36,0,0,1-4.43-7.08H114.7a24.06,24.06,0,0,0,.32-3.65,21.6,21.6,0,0,0-5.77-15.21,19,19,0,0,0-14.64-6.26" style="fill: rgb(255, 196, 55);"/>
      <path d="M196.12,46a13.38,13.38,0,0,1-18.39,0,13,13,0,0,1-3.66-9.36,12.56,12.56,0,0,1,3.66-9.27,13.17,13.17,0,0,1,18.39,0,12.59,12.59,0,0,1,3.65,9.27A12.88,12.88,0,0,1,196.12,46M199.77,0V22q-5-6.84-14.23-6.84a19.09,19.09,0,0,0-14.31,6.19,21.09,21.09,0,0,0-5.94,15.2,21.11,21.11,0,0,0,5.94,15.21A19.12,19.12,0,0,0,185.54,58h.65a23,23,0,0,0,13.58-4.21,23.93,23.93,0,0,0,2.34-2,20.06,20.06,0,0,0,6.37-13.34,18.33,18.33,0,0,0,.07-1.86V0Z" style="fill: rgb(255, 196, 55);"/>
      <path d="M62.44,49.2a4.39,4.39,0,1,0,4.39,4.39,4.39,4.39,0,0,0-4.39-4.39" style="fill: rgb(255, 196, 55);"/>
    </g>
  </g>
</svg>